# This file uses centimeters as units for non-parametric coordinates.

mtllib sdf.mtl
g default
v -1500.000095 -0.000143 499.999952
v -1500.000286 -0.000187 -499.999905
v -499.999905 -0.000143 1499.999905
v 499.999905 -0.000143 1499.999905
v -803.486824 -0.000123 798.786116
v -96.380329 -0.000154 91.679430
v -1132.715511 -0.000109 604.590559
v -750.032282 -0.000149 -319.288778
v -558.859253 -0.000134 1204.094028
v 365.020061 -0.000151 821.410561
vt 0.367917 0.895514
vt 0.750218 1.818470
vt 0.000999 1.999001
vt 0.000999 1.000000
vt 0.941200 0.296610
vt 1.864156 0.678910
vt 1.403217 1.407912
vt 0.696816 0.701513
vt 1.000000 0.000999
vt 1.999001 0.000999
vn -0.000000 1.000000 -0.000000
vn -0.000000 1.000000 -0.000000
vn -0.000000 1.000000 -0.000000
vn -0.000000 1.000000 -0.000000
vn -0.000000 1.000000 -0.000000
vn -0.000000 1.000000 -0.000000
vn 0.000000 1.000000 0.000000
vn 0.000000 1.000000 -0.000000
vn 0.000000 1.000000 -0.000000
vn 0.000000 1.000000 -0.000000
vn 0.000000 1.000000 -0.000000
vn 0.000000 1.000000 0.000000
vn 0.000000 1.000000 -0.000000
vn 0.000000 1.000000 -0.000000
vn -0.000000 1.000000 -0.000000
vn -0.000000 1.000000 -0.000000
vn -0.000000 1.000000 -0.000000
vn 0.000000 1.000000 -0.000000
vn 0.000000 1.000000 0.000000
vn 0.000000 1.000000 -0.000000
vn 0.000000 1.000000 -0.000000
vn 0.000000 1.000000 -0.000000
vn 0.000000 1.000000 0.000000
vn 0.000000 1.000000 0.000000
s off
g polySurface1 sky_floor005
usemtl polySurface1SG2
f 7/1/1 8/2/2 2/3/3
f 2/3/4 1/4/5 7/1/6
f 9/5/7 10/6/8 6/7/9
f 6/7/10 5/8/11 9/5/12
f 5/8/13 6/7/14 8/2/15
f 8/2/16 7/1/17 5/8/18
f 3/9/19 4/10/20 10/6/21
f 10/6/22 9/5/23 3/9/24
